<?xml version="1.0" standalone="no"?>
<!DOCTYPE svg PUBLIC "-//W3C//DTD SVG 20010904//EN"
 "http://www.w3.org/TR/2001/REC-SVG-20010904/DTD/svg10.dtd">
<svg version="1.0" xmlns="http://www.w3.org/2000/svg"
 width="512.000000pt" height="512.000000pt" viewBox="0 0 512.000000 512.000000"
 preserveAspectRatio="xMidYMid meet">

<g transform="translate(0.000000,512.000000) scale(0.100000,-0.100000)"
fill="#000000" stroke="none">
<path d="M550 5113 c-52 -8 -157 -46 -215 -76 -79 -42 -210 -173 -252 -252
-17 -33 -42 -91 -55 -130 l-23 -70 0 -845 c0 -915 -1 -890 55 -1016 73 -162
241 -312 397 -353 l42 -11 3 -208 c3 -231 9 -252 71 -291 40 -25 106 -28 145
-7 15 8 133 121 262 250 l235 236 197 0 198 0 0 -628 c0 -400 4 -650 11 -688
5 -32 31 -102 56 -154 78 -161 218 -281 398 -342 l70 -23 880 -3 880 -3 245
-243 c261 -260 272 -268 349 -251 35 7 85 46 104 79 8 14 14 92 17 230 l5 209
40 12 c67 20 160 72 224 125 113 94 199 249 221 396 6 41 10 388 10 854 0 878
1 864 -69 1005 -81 162 -208 274 -381 337 -64 23 -70 23 -610 28 l-545 5 -5
660 -5 660 -23 65 c-63 173 -175 300 -337 381 -145 72 -85 69 -1395 67 -646 0
-1186 -3 -1200 -5z m2450 -324 c30 -14 70 -39 89 -55 42 -35 93 -115 109 -170
9 -30 12 -213 12 -662 l0 -621 -542 -3 c-530 -3 -545 -4 -608 -25 -244 -83
-424 -305 -447 -550 l-6 -63 -238 0 c-141 0 -249 -4 -266 -10 -15 -6 -90 -73
-165 -148 l-138 -137 0 90 c0 145 -36 189 -171 206 -136 17 -243 91 -297 207
l-27 57 -3 790 c-2 593 0 805 9 849 24 116 130 229 245 261 40 11 262 13 1219
12 l1170 -2 55 -26z m1564 -1821 c55 -16 135 -67 170 -109 16 -19 41 -59 55
-89 l26 -55 3 -799 c2 -706 1 -805 -13 -854 -43 -145 -162 -243 -316 -258 -77
-7 -120 -30 -149 -76 -16 -26 -20 -51 -20 -122 l0 -89 -127 125 c-71 69 -142
132 -160 141 -29 15 -113 17 -906 17 -550 0 -894 4 -928 10 -115 22 -208 94
-257 198 l-27 57 -3 817 -2 816 21 59 c30 78 122 171 199 201 55 21 60 21
1224 21 874 1 1179 -2 1210 -11z"/>
<path d="M3840 2385 c-21 -9 -161 -141 -345 -325 l-310 -310 -130 131 c-141
141 -165 159 -220 159 -100 0 -168 -81 -150 -178 6 -31 38 -68 208 -240 111
-112 214 -210 229 -218 44 -23 99 -18 149 15 50 32 740 723 759 760 17 33 16
101 -3 138 -35 66 -120 97 -187 68z"/>
</g>
</svg>
